<?xml version="1.0" encoding="UTF-8"?>
<svg version="1.1" xmlns="http://www.w3.org/2000/svg" width="305" height="306">
<path d="M0 0 C0.73948883 -0.00100708 1.47897766 -0.00201416 2.24087524 -0.00305176 C13.48526237 0.00731637 24.23274936 0.5688478 35.1875 3.25 C36.3940625 3.54003906 37.600625 3.83007812 38.84375 4.12890625 C77.79654347 14.42726647 111.87704538 39.38645294 132.1875 74.25 C132.80455811 75.30550049 132.80455811 75.30550049 133.43408203 76.38232422 C152.18955231 108.96808823 159.81921612 150.38644394 150.1875 187.25 C149.83183797 188.73042233 149.47637874 190.21089339 149.12109375 191.69140625 C143.61715318 213.70716852 133.03497049 235.04182249 118.1875 252.25 C117.66671875 252.85440918 117.1459375 253.45881836 116.609375 254.08154297 C96.49554698 277.11493072 71.3573629 292.45779374 42.1875 301.25 C41.16785156 301.56839844 40.14820313 301.88679688 39.09765625 302.21484375 C26.5880634 305.90710243 13.83387093 306.63045081 0.875 306.5625 C0.15005341 306.56067719 -0.57489319 306.55885437 -1.32180786 306.55697632 C-12.1185447 306.51132007 -22.31305366 305.95988845 -32.8125 303.25 C-34.23559136 302.91760153 -35.65877217 302.58558583 -37.08203125 302.25390625 C-60.09497391 296.62060857 -80.94722052 285.80157935 -98.8125 270.25 C-100.23949219 269.02216797 -100.23949219 269.02216797 -101.6953125 267.76953125 C-130.11770508 242.82789837 -147.11370123 207.55561449 -151.8125 170.25 C-152.7460517 151.43861133 -152.71375986 132.53615498 -147.8125 114.25 C-147.5870752 113.39760742 -147.36165039 112.54521484 -147.12939453 111.66699219 C-137.91474824 78.19899651 -117.111001 48.33462198 -88.8125 28.25 C-87.73871094 27.48300781 -86.66492188 26.71601563 -85.55859375 25.92578125 C-59.88447382 8.55710271 -30.87892472 0.02901633 0 0 Z " fill="#FEFEFE" transform="translate(151.8125,-0.25)"/>
<path d="M0 0 C4.98343838 2.49171919 7.04371316 4.83382872 9 10 C9.42856802 13.93422473 9.46613431 17.85747125 9.5 21.8125 C9.57478237 30.44986379 10.05727564 37.97284588 14.5 45.5625 C18.84204592 48.0591764 23.14029127 47.72230351 28 47 C45.52122824 41.43066444 60.74128474 27.24413531 74 15 C82.33465142 7.31212929 82.33465142 7.31212929 87 6 C87 10 87 10 85.56640625 11.60546875 C84.57447266 12.38857422 84.57447266 12.38857422 83.5625 13.1875 C80.4158012 15.77662585 77.52032876 18.44501646 74.6875 21.375 C69.78127666 26.3402329 64.45384454 30.65554347 59 35 C58.18660156 35.680625 57.37320313 36.36125 56.53515625 37.0625 C45.73729392 46.02280067 30.83999364 57.42571975 15.99609375 56.41796875 C11.02750611 55.37757956 7.85027477 53.08007877 4.6875 49.0625 C0.00399359 40.56280317 -0.19791249 31.99250205 -0.51757812 22.49609375 C-0.75442683 17.19604535 -1.07664392 12.92335608 -5 9 C-8.81182237 8.55705501 -10.80619674 9.10207705 -13.8125 11.4375 C-24.70043853 20.22925597 -32.01192606 32.2253822 -39.05859375 44.1328125 C-39.57905273 45.01219482 -40.09951172 45.89157715 -40.63574219 46.79760742 C-41.64150874 48.50864483 -42.63881409 50.22469534 -43.62597656 51.9465332 C-51.73651939 65.82416946 -51.73651939 65.82416946 -56.98876953 67.71655273 C-58.9375 68 -58.9375 68 -62 68 C-65.51533784 63.45935529 -65.46857683 59.48775553 -65 54 C-64.68560697 51.99693531 -64.35613269 49.99606629 -64 48 C-64.94359375 48.79664063 -65.8871875 49.59328125 -66.859375 50.4140625 C-78.01220921 59.67670952 -89.38352626 68.2213773 -104.5 68.375 C-105.7684375 68.40335937 -107.036875 68.43171875 -108.34375 68.4609375 C-112.60710017 67.92346387 -114.68449481 66.68144508 -118 64 C-123.78781997 56.49147679 -123.78987293 49.26057916 -123 40 C-120.51107082 27.04358194 -114.67977236 13.89850752 -106 4 C-103.525 4.495 -103.525 4.495 -101 5 C-100.67 5.99 -100.34 6.98 -100 8 C-101.33609413 10.51847832 -102.71156786 12.8605203 -104.25 15.25 C-111.05702579 25.96516047 -115.12591685 36.03436373 -114 49 C-113.14504853 52.80052646 -111.77670729 55.31205926 -108.8125 57.9375 C-100.7455894 60.98499956 -92.65571809 58.13350322 -85 55 C-80.68142987 52.6967626 -76.8661257 49.99376913 -73 47 C-72.45279297 46.59845703 -71.90558594 46.19691406 -71.34179688 45.78320312 C-60.90615501 38.00739191 -57.07516511 29.36763903 -52.85546875 17.28613281 C-51.04973989 12.46054917 -48.66983175 6.66983175 -45 3 C-43.00041636 2.95919217 -40.99954746 2.95745644 -39 3 C-39.53851968 8.27749285 -40.77343836 12.25645564 -43 17 C-42.38511719 16.2059375 -41.77023438 15.411875 -41.13671875 14.59375 C-40.32847656 13.5728125 -39.52023438 12.551875 -38.6875 11.5 C-37.48673828 9.96859375 -37.48673828 9.96859375 -36.26171875 8.40625 C-35.51535156 7.6121875 -34.76898438 6.818125 -34 6 C-33.01 6 -32.02 6 -31 6 C-31.5352332 9.82652412 -32.42998403 11.97412778 -34.94921875 14.890625 C-35.55056641 15.60089844 -36.15191406 16.31117188 -36.77148438 17.04296875 C-37.40376953 17.77128906 -38.03605469 18.49960938 -38.6875 19.25 C-45.41571431 27.07482127 -51.63263731 34.58218471 -54.875 44.5 C-55.28492187 45.7065625 -55.69484375 46.913125 -56.1171875 48.15625 C-57.12589658 52.54815149 -57.19618298 56.52241188 -57 61 C-56.68885254 60.47792969 -56.37770508 59.95585937 -56.05712891 59.41796875 C-52.38857753 53.26826502 -48.69989088 47.13089452 -45 41 C-44.54173828 40.2383252 -44.08347656 39.47665039 -43.61132812 38.69189453 C-18.33623824 -3.1735797 -18.33623824 -3.1735797 0 0 Z " fill="#444241" transform="translate(148,121)"/>
<path d="M0 0 C1.06734375 0.25523438 2.1346875 0.51046875 3.234375 0.7734375 C16.73207867 4.3618514 28.53933729 11.90546861 39 21 C39.6084375 21.47695312 40.216875 21.95390625 40.84375 22.4453125 C58.09930476 36.17132196 70.41927708 60.29247779 73 82 C73.94718411 96.30205143 74.24031442 111.18685454 70 125 C69.80664062 125.63228516 69.61328125 126.26457031 69.4140625 126.91601562 C61.4924036 152.02571836 44.92351998 172.04322784 22 185 C-2.37682597 197.6759495 -30.35829819 200.8244522 -56.875 192.9375 C-69.85695012 188.79971244 -81.87897782 182.12632712 -92 173 C-91.01 171.02 -91.01 171.02 -90 169 C-86.3857592 170.30214299 -83.6179004 171.87344459 -80.5625 174.1875 C-70.60184118 181.28114426 -59.82701641 185.99031168 -48 189 C-46.73542969 189.33837891 -46.73542969 189.33837891 -45.4453125 189.68359375 C-33.07393384 192.47775248 -18.23243746 192.32346452 -6 189 C-4.79472656 188.68160156 -3.58945313 188.36320313 -2.34765625 188.03515625 C12.02062567 184.01006181 24.75037011 177.89801077 36 168 C36.80179688 167.39929688 37.60359375 166.79859375 38.4296875 166.1796875 C41.55340735 163.53069711 43.94499733 160.60913154 46.4375 157.375 C46.9212207 156.74819336 47.40494141 156.12138672 47.90332031 155.47558594 C53.79044902 147.75145137 58.14152765 140.07809499 61.75 131.0625 C62.04422852 130.33514648 62.33845703 129.60779297 62.64160156 128.85839844 C71.17462292 106.601352 68.90086468 80.41251114 60.1875 58.6875 C57.32971743 52.38608943 54.02239926 46.62637252 50 41 C49.35546875 40.09636719 48.7109375 39.19273438 48.046875 38.26171875 C33.71715823 19.50040439 10.72802417 6.72859169 -12.55859375 3.47265625 C-33.12795764 1.06962926 -52.78215702 4.02927636 -71 14 C-71.92167969 14.49628906 -72.84335938 14.99257812 -73.79296875 15.50390625 C-85.08806189 21.93072669 -96.24850727 30.74751211 -103 42 C-104.32 41.34 -105.64 40.68 -107 40 C-106.15303343 34.05757325 -100.95094788 30.16364164 -97 26 C-96.10861328 25.02933594 -96.10861328 25.02933594 -95.19921875 24.0390625 C-83.38678827 11.57821698 -67.43232223 4.03498304 -51 0 C-50.10925781 -0.29777344 -49.21851563 -0.59554687 -48.30078125 -0.90234375 C-33.25527948 -5.668583 -15.0315128 -4.09626534 0 0 Z " fill="#464443" transform="translate(215,56)"/>
<path d="M0 0 C1.0828125 0.37125 1.0828125 0.37125 2.1875 0.75 C2.45703125 3.4921875 2.45703125 3.4921875 2.1875 6.75 C0.32421875 8.9453125 0.32421875 8.9453125 -2.125 10.875 C-5.16125623 13.30987214 -7.60298611 15.53226132 -9.8125 18.75 C-10.8025 18.42 -11.7925 18.09 -12.8125 17.75 C-12.24881758 10.84489035 -10.23652553 6.23618003 -5.375 1.25 C-2.8125 -0.25 -2.8125 -0.25 0 0 Z " fill="#474544" transform="translate(58.8125,102.25)"/>
<path d="M0 0 C1.8125 1.125 1.8125 1.125 3 3 C3.42478586 7.07794425 3.31282587 8.53076119 1 12 C-2.1305429 12.39964378 -4.13083761 12.52149743 -6.875 10.875 C-8.52854531 8.11909116 -8.39365568 6.14924548 -8 3 C-5.90534242 -0.30735407 -3.75951639 -0.56392746 0 0 Z " fill="#636160" transform="translate(156,193)"/>
<path d="M0 0 C1.89488952 1.89488952 1.18019112 4.57139146 1.23046875 7.08984375 C1 9 1 9 -1 11 C-4 11.25 -4 11.25 -7 11 C-9 9 -9 9 -9.3125 5.5625 C-9 2 -9 2 -7.875 0 C-5.042116 -1.51087147 -3.01987426 -0.78779328 0 0 Z " fill="#51504F" transform="translate(144,194)"/>
<path d="M0 0 C1.89488952 1.89488952 1.18019112 4.57139146 1.23046875 7.08984375 C1 9 1 9 -1 11 C-4 11.25 -4 11.25 -7 11 C-9 9 -9 9 -9.3125 5.5625 C-9 2 -9 2 -7.875 0 C-5.042116 -1.51087147 -3.01987426 -0.78779328 0 0 Z " fill="#51504F" transform="translate(99,194)"/>
<path d="M0 0 C1.32 0 2.64 0 4 0 C4.99 1.98 5.98 3.96 7 6 C7.33 4.02 7.66 2.04 8 0 C8.99 0 9.98 0 11 0 C11 3.96 11 7.92 11 12 C9.68 12 8.36 12 7 12 C5.25 9.5 5.25 9.5 4 7 C3.67 8.65 3.34 10.3 3 12 C2.01 12 1.02 12 0 12 C0 8.04 0 4.08 0 0 Z " fill="#777575" transform="translate(76,193)"/>
<path d="M0 0 C0.556875 0.268125 1.11375 0.53625 1.6875 0.8125 C1.92578963 3.67197552 2.11454675 6.0100057 1.6875 8.8125 C-0.5 11.375 -0.5 11.375 -3.3125 12.8125 C-6.125 12.5625 -6.125 12.5625 -8.3125 11.8125 C-8.05969023 7.51473394 -7.66206023 5.26598354 -5 1.8125 C-2.3125 -0.1875 -2.3125 -0.1875 0 0 Z " fill="#444342" transform="translate(228.3125,167.1875)"/>
<path d="M0 0 C0.99 0 1.98 0 3 0 C3.33 0.99 3.66 1.98 4 3 C5.32 2.34 6.64 1.68 8 1 C7.79375 1.886875 7.5875 2.77375 7.375 3.6875 C6.97449761 7.2252711 7.43316484 8.86632967 9 12 C6 12 6 12 4.3125 10.5 C3.879375 10.005 3.44625 9.51 3 9 C3 9.99 3 10.98 3 12 C2.01 12 1.02 12 0 12 C0 8.04 0 4.08 0 0 Z " fill="#5B5958" transform="translate(162,193)"/>
<path d="M0 0 C2.31 0 4.62 0 7 0 C7.33 1.32 7.66 2.64 8 4 C7.34 4 6.68 4 6 4 C6 3.34 6 2.68 6 2 C4.68 2 3.36 2 2 2 C2 2.66 2 3.32 2 4 C2.99 4.33 3.98 4.66 5 5 C4.01 5.33 3.02 5.66 2 6 C2 6.99 2 7.98 2 9 C3.32 9 4.64 9 6 9 C6 8.01 6 7.02 6 6 C6.66 6 7.32 6 8 6 C8 7.32 8 8.64 8 10 C5.29120665 11.35439668 2.99066732 11.06501451 0 11 C0 7.37 0 3.74 0 0 Z " fill="#464544" transform="translate(124,194)"/>
<path d="M0 0 C1.98 0 3.96 0 6 0 C4.68 0.33 3.36 0.66 2 1 C2 1.99 2 2.98 2 4 C3.32 4 4.64 4 6 4 C6 4.66 6 5.32 6 6 C4.68 6 3.36 6 2 6 C2 6.99 2 7.98 2 9 C3.65 9 5.3 9 7 9 C7 9.66 7 10.32 7 11 C4.69 11 2.38 11 0 11 C0 7.37 0 3.74 0 0 Z " fill="#42403F" transform="translate(114,194)"/>
<path d="M0 0 C1.32 0.66 2.64 1.32 4 2 C4 3.65 4 5.3 4 7 C2.34385343 7.38218767 0.67542976 7.71395102 -1 8 C-2 7 -2 7 -2.1875 4.5625 C-2 2 -2 2 0 0 Z " fill="#E9E9E9" transform="translate(139,195)"/>
<path d="M0 0 C1.32 0.66 2.64 1.32 4 2 C4 3.65 4 5.3 4 7 C2.34385343 7.38218767 0.67542976 7.71395102 -1 8 C-2 7 -2 7 -2.1875 4.5625 C-2 2 -2 2 0 0 Z " fill="#E9E9E9" transform="translate(94,195)"/>
<path d="M0 0 C0.99 0 1.98 0 3 0 C3 3.96 3 7.92 3 12 C2.01 12 1.02 12 0 12 C0 8.04 0 4.08 0 0 Z " fill="#696766" transform="translate(64,193)"/>
<path d="M0 0 C1.65 0 3.3 0 5 0 C5 1.98 5 3.96 5 6 C3.0625 6.5625 3.0625 6.5625 1 7 C0 6 0 6 -0.0625 2.9375 C-0.041875 1.968125 -0.02125 0.99875 0 0 Z " fill="#F9F9F9" transform="translate(151,196)"/>
<path d="M0 0 C2.64 0 5.28 0 8 0 C8 0.66 8 1.32 8 2 C7.01 2 6.02 2 5 2 C5 4.97 5 7.94 5 11 C4.34 11 3.68 11 3 11 C3 7.7 3 4.4 3 1 C2.01 0.67 1.02 0.34 0 0 Z " fill="#444241" transform="translate(103,194)"/>
<path d="M0 0 C1.32 0 2.64 0 4 0 C4.93423645 3.01031744 5.04449911 3.86650268 4 7 C2.68 7 1.36 7 0 7 C0 6.01 0 5.02 0 4 C0.66 3.67 1.32 3.34 2 3 C1.34 2.67 0.68 2.34 0 2 C0 1.34 0 0.68 0 0 Z " fill="#B9B8B7" transform="translate(126,196)"/>
<path d="M0 0 C1.89213369 2.38573379 3.02391783 4.07175348 4 7 C1 7 1 7 -0.6875 5.5 C-1.120625 5.005 -1.55375 4.51 -2 4 C-2.33 4.99 -2.66 5.98 -3 7 C-2.25 2.25 -2.25 2.25 0 0 Z " fill="#696867" transform="translate(167,198)"/>
<path d="M0 0 C0.99 0.33 1.98 0.66 3 1 C2.9071875 2.175625 2.9071875 2.175625 2.8125 3.375 C2.874375 4.24125 2.93625 5.1075 3 6 C3.99 6.66 4.98 7.32 6 8 C4.33388095 8.042721 2.66617115 8.04063832 1 8 C0 7 0 7 -0.0625 3.4375 C-0.041875 2.303125 -0.02125 1.16875 0 0 Z " fill="#454342" transform="translate(135,196)"/>
<path d="M0 0 C0.99 0.33 1.98 0.66 3 1 C2.9071875 2.175625 2.9071875 2.175625 2.8125 3.375 C2.874375 4.24125 2.93625 5.1075 3 6 C3.99 6.66 4.98 7.32 6 8 C4.33388095 8.042721 2.66617115 8.04063832 1 8 C0 7 0 7 -0.0625 3.4375 C-0.041875 2.303125 -0.02125 1.16875 0 0 Z " fill="#454342" transform="translate(90,196)"/>
<path d="M0 0 C0.33 0 0.66 0 1 0 C1 3.63 1 7.26 1 11 C0.01 11 -0.98 11 -2 11 C-2.33 9.68 -2.66 8.36 -3 7 C-2.34 7 -1.68 7 -1 7 C-0.67 4.69 -0.34 2.38 0 0 Z " fill="#403E3D" transform="translate(85,194)"/>
<path d="M0 0 C2.375 -0.125 2.375 -0.125 5 0 C7 2 7 2 7.125 4.625 C7.08375 5.40875 7.0425 6.1925 7 7 C6.34 7 5.68 7 5 7 C4.731875 6.21625 4.46375 5.4325 4.1875 4.625 C3.15185568 1.71885077 3.15185568 1.71885077 0 0 Z " fill="#454342" transform="translate(152,194)"/>
</svg>
